<svg width="120" height="40" viewBox="0 0 120 40" fill="none" xmlns="http://www.w3.org/2000/svg">
  <!-- Figma icon -->
  <g transform="translate(8,4)">
    <!-- Left shapes -->
    <rect x="0" y="0" width="8" height="8" rx="4" fill="#F24E1E"/>
    <rect x="0" y="8" width="8" height="8" rx="4" fill="#A259FF"/>
    <rect x="0" y="16" width="8" height="8" rx="4" fill="#0ACF83"/>
    <!-- Right shapes -->
    <rect x="8" y="0" width="8" height="8" rx="4" fill="#FF7262"/>
    <circle cx="12" cy="12" r="4" fill="#1ABCFE"/>
  </g>
  <!-- Figma text -->
  <g fill="currentColor" transform="translate(48,8)">
    <path d="M0 0h8v3H3v4h4v3H3v6H0V0z"/>
    <path d="M12 0v16h-3V0h3z"/>
    <path d="M18 16c-2.2 0-4-0.8-5.4-2.3-1.4-1.5-2.1-3.4-2.1-5.7s0.7-4.2 2.1-5.7C14 0.8 15.8 0 18 0s4 0.8 5.4 2.3c1.4 1.5 2.1 3.4 2.1 5.7s-0.7 4.2-2.1 5.7C22 15.2 20.2 16 18 16zm0-3c1.3 0 2.4-0.5 3.3-1.4 0.9-0.9 1.3-2.1 1.3-3.6s-0.4-2.7-1.3-3.6C20.4 3.5 19.3 3 18 3s-2.4 0.5-3.3 1.4c-0.9 0.9-1.3 2.1-1.3 3.6s0.4 2.7 1.3 3.6C15.6 12.5 16.7 13 18 13z"/>
    <path d="M30 0v8h5v3h-5v5h-3V0h3zm5 0v3h3V0h-3z"/>
    <path d="M42 0v8h5v3h-5v5h-3V0h3zm5 0v3h3V0h-3z"/>
    <path d="M54 16c-2.2 0-3.9-0.7-5.2-2.1-1.3-1.4-1.9-3.3-1.9-5.6 0-2.4 0.6-4.4 1.9-5.9C50.1 1 51.8 0.2 54 0.2c1.7 0 3.2 0.5 4.4 1.4s2 2.3 2.4 4h-3.2c-0.2-0.9-0.6-1.6-1.2-2.1-0.6-0.5-1.3-0.8-2.1-0.8-1.2 0-2.2 0.4-2.9 1.3-0.7 0.8-1.1 2-1.1 3.5s0.4 2.7 1.1 3.5c0.7 0.8 1.7 1.3 2.9 1.3 0.8 0 1.5-0.3 2.1-0.8 0.6-0.5 1-1.2 1.2-2.1h3.2c-0.4 1.7-1.2 3.1-2.4 4S55.7 16 54 16z"/>
  </g>
</svg>