<svg width="120" height="40" viewBox="0 0 120 40" fill="none" xmlns="http://www.w3.org/2000/svg">
  <!-- GitHub Octocat icon -->
  <g transform="translate(8,8)">
    <path d="M12 0c-6.626 0-12 5.373-12 12 0 5.302 3.438 9.8 8.207 11.387.599.111.793-.261.793-.577v-2.234c-3.338.726-4.033-1.416-4.033-1.416-.546-1.387-1.333-1.756-1.333-1.756-1.089-.745.083-.729.083-.729 1.205.084 1.839 1.237 1.839 1.237 1.07 1.834 2.807 1.304 3.492.997.107-.775.418-1.305.762-1.604-2.665-.305-5.467-1.334-5.467-5.931 0-1.311.469-2.381 1.236-3.221-.124-.303-.535-1.524.117-3.176 0 0 1.008-.322 3.301 1.23.957-.266 1.983-.399 3.003-.404 1.02.005 2.047.138 3.006.404 2.291-1.552 3.297-1.23 3.297-1.23.653 1.653.242 2.874.118 3.176.77.84 1.235 1.911 1.235 3.221 0 4.609-2.807 5.624-5.479 5.921.43.372.823 1.102.823 2.222v3.293c0 .319.192.694.801.576 4.765-1.589 8.199-6.086 8.199-11.386 0-6.627-5.373-12-12-12z" fill="currentColor"/>
  </g>
  <!-- GitHub text -->
  <g fill="currentColor" transform="translate(40,8)">
    <path d="M0 16c-2.2 0-4-0.8-5.4-2.3-1.4-1.5-2.1-3.4-2.1-5.7s0.7-4.2 2.1-5.7C-4 0.8-2.2 0 0 0s4 0.8 5.4 2.3c1.4 1.5 2.1 3.4 2.1 5.7s-0.7 4.2-2.1 5.7C4 15.2 2.2 16 0 16zm0-3c1.3 0 2.4-0.5 3.3-1.4 0.9-0.9 1.3-2.1 1.3-3.6s-0.4-2.7-1.3-3.6C2.4 3.5 1.3 3 0 3s-2.4 0.5-3.3 1.4c-0.9 0.9-1.3 2.1-1.3 3.6s0.4 2.7 1.3 3.6C-2.4 12.5-1.3 13 0 13z"/>
    <path d="M12 0v16h-3V0h3z"/>
    <path d="M18 16c-1.9 0-3.4-0.6-4.6-1.9-1.2-1.3-1.8-3-1.8-5.1V0h3v9c0 1.3 0.3 2.3 0.8 3 0.5 0.7 1.3 1 2.3 1s1.8-0.3 2.3-1c0.5-0.7 0.8-1.7 0.8-3V0h3v9c0 2.1-0.6 3.8-1.8 5.1C21.4 15.4 19.9 16 18 16z"/>
    <path d="M26 0h8v3h-5v4h4v3h-4v6h-3V0z"/>
  </g>
</svg>