<svg width="120" height="40" viewBox="0 0 120 40" fill="none" xmlns="http://www.w3.org/2000/svg">
  <!-- Linear icon -->
  <g transform="translate(8,8)">
    <path d="M2 2L22 22L20 24L0 4L2 2Z" fill="#5E6AD2"/>
    <circle cx="18" cy="6" r="2" fill="#5E6AD2"/>
    <path d="M16 8C16 9.1 15.1 10 14 10S12 9.1 12 8 12.9 6 14 6 16 6.9 16 8Z" fill="#5E6AD2"/>
    <path d="M10 12C10 13.1 9.1 14 8 14S6 13.1 6 12 6.9 10 8 10 10 10.9 10 12Z" fill="#5E6AD2"/>
    <path d="M4 16C4 17.1 3.1 18 2 18S0 17.1 0 16 0.9 14 2 14 4 14.9 4 16Z" fill="#5E6AD2"/>
  </g>
  <!-- Linear text -->
  <g fill="currentColor" transform="translate(40,8)">
    <path d="M0 0v13h8v3H-3V0h3z"/>
    <path d="M12 0v16h-3V0h3z"/>
    <path d="M18 0v8h5v3h-5v5h-3V0h3zm5 0v3h3V0h-3z"/>
    <path d="M30 16c-2.2 0-4-0.8-5.4-2.3-1.4-1.5-2.1-3.4-2.1-5.7s0.7-4.2 2.1-5.7C26 0.8 27.8 0 30 0s4 0.8 5.4 2.3c1.4 1.5 2.1 3.4 2.1 5.7s-0.7 4.2-2.1 5.7C34 15.2 32.2 16 30 16zm0-3c1.3 0 2.4-0.5 3.3-1.4 0.9-0.9 1.3-2.1 1.3-3.6s-0.4-2.7-1.3-3.6C32.4 3.5 31.3 3 30 3s-2.4 0.5-3.3 1.4c-0.9 0.9-1.3 2.1-1.3 3.6s0.4 2.7 1.3 3.6C27.6 12.5 28.7 13 30 13z"/>
    <path d="M42 0v11c0 1.3 0.3 2.3 0.8 3 0.5 0.7 1.3 1 2.3 1s1.8-0.3 2.3-1c0.5-0.7 0.8-1.7 0.8-3V0h3v11c0 2.1-0.6 3.8-1.8 5.1-1.2 1.3-2.7 1.9-4.6 1.9s-3.4-0.6-4.6-1.9C38.6 14.8 38 13.1 38 11V0h3z"/>
  </g>
</svg>