<svg width="120" height="40" viewBox="0 0 120 40" fill="none" xmlns="http://www.w3.org/2000/svg">
  <path d="M8 32V12h3v17h8v3H8zM24 32c-2.2 0-4-0.8-5.4-2.3-1.4-1.5-2.1-3.4-2.1-5.7s0.7-4.2 2.1-5.7C20 16.8 21.8 16 24 16s4 0.8 5.4 2.3c1.4 1.5 2.1 3.4 2.1 5.7s-0.7 4.2-2.1 5.7C28 31.2 26.2 32 24 32zm0-3c1.3 0 2.4-0.5 3.3-1.4 0.9-0.9 1.3-2.1 1.3-3.6s-0.4-2.7-1.3-3.6C26.4 19.5 25.3 19 24 19s-2.4 0.5-3.3 1.4c-0.9 0.9-1.3 2.1-1.3 3.6s0.4 2.7 1.3 3.6C21.6 28.5 22.7 29 24 29zM37 32l-6-16h3.2l4.3 12.2L42.8 16H46l-6 16h-3zM53.5 32c-2.2 0-3.9-0.7-5.2-2.1-1.3-1.4-1.9-3.3-1.9-5.6 0-2.4 0.6-4.4 1.9-5.9C49.6 17 51.3 16.2 53.5 16.2c1.7 0 3.2 0.5 4.4 1.4s2 2.3 2.4 4h-3.2c-0.2-0.9-0.6-1.6-1.2-2.1-0.6-0.5-1.3-0.8-2.1-0.8-1.2 0-2.2 0.4-2.9 1.3-0.7 0.8-1.1 2-1.1 3.5s0.4 2.7 1.1 3.5c0.7 0.8 1.7 1.3 2.9 1.3 0.8 0 1.5-0.3 2.1-0.8 0.6-0.5 1-1.2 1.2-2.1h3.2c-0.4 1.7-1.2 3.1-2.4 4S55.2 32 53.5 32zM66.5 32c-2.2 0-3.9-0.7-5.2-2.1-1.3-1.4-1.9-3.3-1.9-5.6 0-2.4 0.6-4.4 1.9-5.9C62.6 17 64.3 16.2 66.5 16.2c1.7 0 3.2 0.5 4.4 1.4s2 2.3 2.4 4h-3.2c-0.2-0.9-0.6-1.6-1.2-2.1-0.6-0.5-1.3-0.8-2.1-0.8-1.2 0-2.2 0.4-2.9 1.3-0.7 0.8-1.1 2-1.1 3.5s0.4 2.7 1.1 3.5c0.7 0.8 1.7 1.3 2.9 1.3 0.8 0 1.5-0.3 2.1-0.8 0.6-0.5 1-1.2 1.2-2.1h3.2c-0.4 1.7-1.2 3.1-2.4 4S68.2 32 66.5 32zM77.5 32v-16h3v6.8c0.5-0.9 1.1-1.6 1.8-2.1 0.7-0.5 1.5-0.7 2.4-0.7 1.6 0 2.8 0.5 3.6 1.6 0.8 1.1 1.2 2.6 1.2 4.6V32h-3v-5.8c0-1.2-0.2-2.1-0.7-2.7-0.5-0.6-1.2-0.9-2.1-0.9-0.9 0-1.6 0.3-2.1 0.9-0.5 0.6-0.7 1.5-0.7 2.7V32h-3zM93 32v-16h3v2.2c0.5-0.8 1.1-1.4 1.8-1.8 0.7-0.4 1.5-0.6 2.4-0.6 1.5 0 2.8 0.6 3.8 1.7 1 1.1 1.5 2.6 1.5 4.5s-0.5 3.4-1.5 4.5c-1 1.1-2.3 1.7-3.8 1.7-0.9 0-1.7-0.2-2.4-0.6-0.7-0.4-1.3-1-1.8-1.8V32h-3zm5.8-13c-1.2 0-2.1 0.4-2.8 1.3-0.7 0.8-1 2-1 3.4s0.3 2.6 1 3.4c0.7 0.8 1.6 1.3 2.8 1.3s2.1-0.4 2.8-1.3c0.7-0.8 1-2 1-3.4s-0.3-2.6-1-3.4C100.9 19.4 100 19 98.8 19zM109 32v-13h3v13h-3zm0-15v-3h3v3h-3z" fill="currentColor"/>
  <circle cx="16" cy="8" r="4" fill="#FF6B35"/>
</svg>