<svg width="120" height="40" viewBox="0 0 120 40" fill="none" xmlns="http://www.w3.org/2000/svg">
  <!-- n8n icon -->
  <g transform="translate(8,8)">
    <circle cx="4" cy="4" r="3" fill="#EA4B71"/>
    <circle cx="12" cy="4" r="3" fill="#EA4B71"/>
    <circle cx="20" cy="4" r="3" fill="#EA4B71"/>
    <rect x="2" y="8" width="4" height="8" fill="#EA4B71"/>
    <rect x="10" y="8" width="4" height="8" fill="#EA4B71"/>
    <rect x="18" y="8" width="4" height="8" fill="#EA4B71"/>
    <circle cx="4" cy="20" r="3" fill="#EA4B71"/>
    <circle cx="12" cy="20" r="3" fill="#EA4B71"/>
    <circle cx="20" cy="20" r="3" fill="#EA4B71"/>
  </g>
  <!-- n8n text -->
  <g fill="currentColor" transform="translate(48,8)">
    <path d="M0 0v8h5v3H0v5h-3V0h3zm0 8V5h2v3H0z"/>
    <path d="M8 16c-1.7 0-3.1-0.6-4.2-1.8C2.6 13 2 11.6 2 9.8s0.6-3.2 1.8-4.4C5 4.2 6.4 3.6 8.1 3.6c1.4 0 2.6 0.4 3.6 1.2s1.6 1.9 1.9 3.4h-2.8c-0.2-0.8-0.5-1.4-1-1.8-0.5-0.4-1.1-0.6-1.8-0.6-1 0-1.8 0.3-2.4 1-0.6 0.7-0.9 1.6-0.9 2.8s0.3 2.1 0.9 2.8c0.6 0.7 1.4 1 2.4 1 0.7 0 1.3-0.2 1.8-0.6 0.5-0.4 0.8-1 1-1.8h2.8c-0.3 1.5-1 2.6-1.9 3.4S9.5 16 8 16z"/>
    <path d="M18 0v8h5v3h-5v5h-3V0h3zm0 8V5h2v3h-2z"/>
  </g>
</svg>