<svg width="120" height="40" viewBox="0 0 120 40" fill="none" xmlns="http://www.w3.org/2000/svg">
  <!-- Slack hashtag icon -->
  <g transform="translate(8,8)">
    <path d="M6 0a3 3 0 0 0-3 3v3a3 3 0 0 0 3 3h3V6a3 3 0 0 0-3-3z" fill="#E01E5A"/>
    <path d="M15 6a3 3 0 0 0 3-3V0a3 3 0 0 0-3-3h-3v3a3 3 0 0 0 3 3z" fill="#36C5F0"/>
    <path d="M18 15a3 3 0 0 0 3-3v-3a3 3 0 0 0-3-3h-3v3a3 3 0 0 0 3 3z" fill="#2EB67D"/>
    <path d="M9 24a3 3 0 0 0-3 3v3a3 3 0 0 0 3 3h3v-3a3 3 0 0 0-3-3z" fill="#ECB22E"/>
  </g>
  <!-- Slack text -->
  <g fill="currentColor" transform="translate(40,8)">
    <path d="M0 16c-1.7 0-3.1-0.6-4.2-1.8C-5.4 13 -6 11.6 -6 9.8s0.6-3.2 1.8-4.4C-3 4.2 -1.6 3.6 0.1 3.6c1.4 0 2.6 0.4 3.6 1.2s1.6 1.9 1.9 3.4H2.8C2.6 7.4 2.3 6.8 1.8 6.4 1.3 6 0.7 5.8 0 5.8c-1 0-1.8 0.3-2.4 1C-3 7.5-3.3 8.4-3.3 9.6s0.3 2.1 0.9 2.8c0.6 0.7 1.4 1 2.4 1 0.7 0 1.3-0.2 1.8-0.6 0.5-0.4 0.8-1 1-1.8h2.8c-0.3 1.5-1 2.6-1.9 3.4S1.5 16 0 16z"/>
    <path d="M8 0v13h-3V0h3z"/>
    <path d="M14 16c-2.2 0-3.9-0.7-5.2-2.1-1.3-1.4-1.9-3.3-1.9-5.6 0-2.4 0.6-4.4 1.9-5.9C10.1 1 11.8 0.2 14 0.2c1.7 0 3.2 0.5 4.4 1.4s2 2.3 2.4 4h-3.2c-0.2-0.9-0.6-1.6-1.2-2.1-0.6-0.5-1.3-0.8-2.1-0.8-1.2 0-2.2 0.4-2.9 1.3-0.7 0.8-1.1 2-1.1 3.5s0.4 2.7 1.1 3.5c0.7 0.8 1.7 1.3 2.9 1.3 0.8 0 1.5-0.3 2.1-0.8 0.6-0.5 1-1.2 1.2-2.1h3.2c-0.4 1.7-1.2 3.1-2.4 4S15.7 16 14 16z"/>
    <path d="M24 0v8h5v3h-5v5h-3V0h3zm0 6v2h2V6h-2z"/>
    <path d="M34 0v8h5v3h-5v5h-3V0h3zm0 6v2h2V6h-2z"/>
  </g>
</svg>