<svg width="120" height="40" viewBox="0 0 120 40" fill="none" xmlns="http://www.w3.org/2000/svg">
  <!-- Zapier Z icon -->
  <g transform="translate(8,8)">
    <path d="M2 2v6h12l-12 12v6h20v-6H10l12-12V2H2z" fill="#FF4A00"/>
  </g>
  <!-- Zapier text -->
  <g fill="currentColor" transform="translate(40,8)">
    <path d="M0 0l8 14L16 0h3L11 16H5L-3 0H0z"/>
    <path d="M20 16c-2.2 0-3.9-0.7-5.2-2.1-1.3-1.4-1.9-3.3-1.9-5.6 0-2.4 0.6-4.4 1.9-5.9C16.1 1 17.8 0.2 20 0.2c1.7 0 3.2 0.5 4.4 1.4s2 2.3 2.4 4h-3.2c-0.2-0.9-0.6-1.6-1.2-2.1-0.6-0.5-1.3-0.8-2.1-0.8-1.2 0-2.2 0.4-2.9 1.3-0.7 0.8-1.1 2-1.1 3.5s0.4 2.7 1.1 3.5c0.7 0.8 1.7 1.3 2.9 1.3 0.8 0 1.5-0.3 2.1-0.8 0.6-0.5 1-1.2 1.2-2.1h3.2c-0.4 1.7-1.2 3.1-2.4 4S21.7 16 20 16z"/>
    <path d="M30 0v8h5v3h-5v5h-3V0h3zm5 0v3h3V0h-3z"/>
    <path d="M42 0v16h-3V0h3z"/>
    <path d="M48 16c-2.2 0-4-0.8-5.4-2.3-1.4-1.5-2.1-3.4-2.1-5.7s0.7-4.2 2.1-5.7C44 0.8 45.8 0 48 0s4 0.8 5.4 2.3c1.4 1.5 2.1 3.4 2.1 5.7s-0.7 4.2-2.1 5.7C52 15.2 50.2 16 48 16zm0-3c1.3 0 2.4-0.5 3.3-1.4 0.9-0.9 1.3-2.1 1.3-3.6s-0.4-2.7-1.3-3.6C50.4 3.5 49.3 3 48 3s-2.4 0.5-3.3 1.4c-0.9 0.9-1.3 2.1-1.3 3.6s0.4 2.7 1.3 3.6C45.6 12.5 46.7 13 48 13z"/>
    <path d="M58 0v11c0 1.3 0.3 2.3 0.8 3 0.5 0.7 1.3 1 2.3 1s1.8-0.3 2.3-1c0.5-0.7 0.8-1.7 0.8-3V0h3v11c0 2.1-0.6 3.8-1.8 5.1-1.2 1.3-2.7 1.9-4.6 1.9s-3.4-0.6-4.6-1.9C54.6 14.8 54 13.1 54 11V0h3z"/>
  </g>
</svg>