<svg width="32" height="32" viewBox="0 0 32 32" xmlns="http://www.w3.org/2000/svg">
  <defs>
    <linearGradient id="louGradient" x1="0%" y1="100%" x2="100%" y2="0%">
      <stop offset="0%" style="stop-color:#7c3aed" />
      <stop offset="50%" style="stop-color:#c026d3" />
      <stop offset="100%" style="stop-color:#ec4899" />
    </linearGradient>
  </defs>
  <!-- Lou ghost shape with wavy bottom and small arms -->
  <path d="M16 2
    C22 2 27 6 27 12
    L27 18
    C27 19 28 20 28 21
    C28 23 26 23 25 22
    C25 24 24 26 22 26
    C21 28 19 28 18 26
    L16 28
    L14 26
    C13 28 11 28 10 26
    C8 26 7 24 7 22
    C6 23 4 23 4 21
    C4 20 5 19 5 18
    L5 12
    C5 6 10 2 16 2Z"
    fill="url(#louGradient)"/>
  <!-- Left eye - curved arc -->
  <path d="M10 12 Q12 10 14 12" stroke="#1e1b4b" stroke-width="1.8" stroke-linecap="round" fill="none"/>
  <!-- Right eye - curved arc -->
  <path d="M18 12 Q20 10 22 12" stroke="#1e1b4b" stroke-width="1.8" stroke-linecap="round" fill="none"/>
  <!-- Smile -->
  <path d="M11 16 Q16 20 21 16" stroke="#1e1b4b" stroke-width="1.8" stroke-linecap="round" fill="none"/>
</svg>
