<svg width="32" height="32" viewBox="0 0 32 32" xmlns="http://www.w3.org/2000/svg">
  <defs>
    <linearGradient id="louGradient" x1="0%" y1="100%" x2="100%" y2="0%">
      <stop offset="0%" style="stop-color:#7c3aed" />
      <stop offset="50%" style="stop-color:#c026d3" />
      <stop offset="100%" style="stop-color:#ec4899" />
    </linearGradient>
  </defs>
  <!-- Lou blob shape - organic with bumps -->
  <path d="M16 3
    C20 3 24 4 26 7
    C28 10 28 13 27 16
    C28 18 28 21 26 23
    C24 26 21 27 18 27
    C16 28 14 28 12 27
    C9 26 6 24 5 21
    C3 18 3 15 4 12
    C4 9 3 7 5 5
    C8 3 12 3 16 3Z"
    fill="url(#louGradient)"/>
  <!-- Left eye - curved arc -->
  <path d="M10 13 Q11.5 11 13 13" stroke="#1e1b4b" stroke-width="1.8" stroke-linecap="round" fill="none"/>
  <!-- Right eye - curved arc -->
  <path d="M19 13 Q20.5 11 22 13" stroke="#1e1b4b" stroke-width="1.8" stroke-linecap="round" fill="none"/>
  <!-- Smile -->
  <path d="M12 18 Q16 22 20 18" stroke="#1e1b4b" stroke-width="1.8" stroke-linecap="round" fill="none"/>
</svg>
